<svg width="48" height="48" viewBox="0 0 48 48" fill="none" xmlns="http://www.w3.org/2000/svg">
<g clip-path="url(#clip0_1482_81)">
<path d="M47.8331 41.851L5.98219 47.8331L0 5.98219L41.851 0L47.8331 41.851ZM29.3794 20.3663C28.7568 16.0109 24.7216 12.9848 20.3663 13.6073C16.0109 14.2299 12.9849 18.2652 13.6073 22.6205C14.2299 26.9758 18.2651 30.0018 22.6205 29.3794C26.9759 28.7568 30.0019 24.7216 29.3794 20.3663Z" fill="black"/>
<path d="M34.1808 25.6463C33.5582 21.2909 29.5228 18.2648 25.1674 18.8874C20.812 19.51 17.7859 23.5454 18.4085 27.9008C19.0311 32.2562 23.0665 35.2822 27.4219 34.6597C31.7773 34.0371 34.8033 30.0017 34.1808 25.6463Z" fill="#f5a623"/>
</g>
<defs>
<clipPath id="clip0_1482_81">
<rect width="48" height="48" fill="white"/>
</clipPath>
</defs>
</svg>
