<svg width="382" height="401" viewBox="0 0 382 401" fill="none" xmlns="http://www.w3.org/2000/svg">
<path d="M232.7 0C326.5 4.40017 381.8 124.8 381.8 210.6C381.8 315.699 296.3 400.8 190.9 400.8C85.5005 400.8 0.000215374 334.4 0 229.4C0 124.4 102.6 158.1 190.9 20.4004C201.1 4.50053 217.6 7.93452e-05 232.6 0H232.7ZM201.198 147.4C188.098 147.4 176.599 150.2 166.599 155.7C156.599 161.2 148.398 169.5 142.998 179.6C137.298 190 134.398 202.2 134.398 216.1C134.398 230.299 137.199 242.499 142.898 252.899C148.298 262.899 156.498 271.2 166.498 276.7C176.498 282.2 188.099 285 201.099 285C218.599 285 232.998 280.4 244.398 271.1C255.798 261.8 262.898 249.3 265.698 233.6H236.099C234.799 241.499 230.599 248.7 224.299 253.6C217.999 258.5 210.098 260.899 200.698 260.899C190.498 261.199 180.699 257 173.799 249.5C166.699 241.9 163.099 230.8 163.099 216.2C163.099 201.6 166.698 190.5 173.898 183C180.798 175.6 190.599 171.5 200.799 171.7C210.299 171.7 218.099 174.1 224.398 178.9C230.698 183.8 234.898 190.9 236.198 198.7H265.799C262.999 183 255.898 170.6 244.498 161.4C233.098 152.2 218.698 147.6 201.198 147.4Z" fill="#1D1D1B"/>
</svg>
