<svg width="92" height="92" viewBox="0 0 92 92" fill="none" xmlns="http://www.w3.org/2000/svg">
<rect width="92" height="92" rx="20" fill="#4A154B"/>
<path fill-rule="evenodd" clip-rule="evenodd" d="M30.9671 52.8459C30.9671 55.8685 28.5277 58.3079 25.505 58.3079C22.4824 58.3079 20.043 55.8603 20.043 52.8459C20.043 49.8315 22.4824 47.3838 25.505 47.3838H30.9671V52.8459ZM33.6941 52.8459C33.6941 49.8232 36.1335 47.3838 39.1561 47.3838C42.1787 47.3838 44.6182 49.8232 44.6182 52.8459V66.4969C44.6182 69.5196 42.1787 71.959 39.1561 71.959C36.1335 71.959 33.6941 69.5196 33.6941 66.4969V52.8459Z" fill="#E01E5A"/>
<path fill-rule="evenodd" clip-rule="evenodd" d="M39.1542 30.9242C36.1316 30.9242 33.6922 28.4847 33.6922 25.4621C33.6922 22.4395 36.1316 20 39.1542 20C42.1768 20 44.6163 22.4395 44.6163 25.4621V30.9242H39.1542ZM39.1542 33.6922C42.1768 33.6922 44.6163 36.1316 44.6163 39.1542C44.6163 42.1768 42.1768 44.6163 39.1542 44.6163H25.4621C22.4395 44.6163 20 42.1686 20 39.1542C20 36.1398 22.4395 33.6922 25.4621 33.6922H39.1542Z" fill="#36C5F0"/>
<path fill-rule="evenodd" clip-rule="evenodd" d="M61.0339 39.1542C61.0339 36.1316 63.4733 33.6922 66.496 33.6922C69.5186 33.6922 71.958 36.1316 71.958 39.1542C71.958 42.1768 69.5186 44.6163 66.496 44.6163H61.0339V39.1542ZM58.307 39.1542C58.307 42.1768 55.8675 44.6163 52.8449 44.6163C49.8223 44.6163 47.3828 42.1768 47.3828 39.1542V25.4621C47.3828 22.4395 49.8223 20 52.8449 20C55.8675 20 58.307 22.4395 58.307 25.4621V39.1542Z" fill="#2EB67D"/>
<path fill-rule="evenodd" clip-rule="evenodd" d="M52.8449 61.0349C55.8675 61.0349 58.307 63.4743 58.307 66.4969C58.307 69.5196 55.8675 71.959 52.8449 71.959C49.8223 71.959 47.3828 69.5196 47.3828 66.4969V61.0349H52.8449ZM52.8449 58.3079C49.8223 58.3079 47.3828 55.8685 47.3828 52.8459C47.3828 49.8232 49.8223 47.3838 52.8449 47.3838H66.537C69.5597 47.3838 71.9991 49.8232 71.9991 52.8459C71.9991 55.8685 69.5597 58.3079 66.537 58.3079H52.8449Z" fill="#ECB22E"/>
</svg>
